<svg width="28" height="24" viewBox="0 0 28 24" fill="none" xmlns="http://www.w3.org/2000/svg">
<rect width="28" height="24" rx="6" fill="#D0D5DF"/>
<path d="M6.57031 15V9.18184H10.3544V10.0654H7.62429V11.6449H10.1584V12.5284H7.62429V14.1165H10.3771V15H6.57031Z" fill="#667085"/>
<path d="M14.5916 10.7813C14.5651 10.5332 14.4534 10.34 14.2564 10.2017C14.0613 10.0635 13.8075 9.99434 13.495 9.99434C13.2753 9.99434 13.0869 10.0275 12.9297 10.0938C12.7725 10.1601 12.6522 10.25 12.5689 10.3637C12.4856 10.4773 12.4429 10.607 12.4411 10.7529C12.4411 10.8741 12.4685 10.9792 12.5234 11.0682C12.5803 11.1572 12.657 11.233 12.7536 11.2955C12.8501 11.3561 12.9571 11.4072 13.0746 11.4489C13.192 11.4906 13.3104 11.5256 13.4297 11.554L13.9751 11.6904C14.1948 11.7415 14.406 11.8106 14.6087 11.8977C14.8132 11.9849 14.996 12.0947 15.157 12.2273C15.3198 12.3599 15.4486 12.5199 15.5433 12.7074C15.638 12.8949 15.6854 13.1146 15.6854 13.3665C15.6854 13.7074 15.5982 14.0076 15.424 14.2671C15.2498 14.5246 14.9979 14.7263 14.6683 14.8722C14.3407 15.0161 13.9439 15.0881 13.478 15.0881C13.0253 15.0881 12.6323 15.018 12.299 14.8779C11.9676 14.7377 11.7081 14.5332 11.5206 14.2642C11.335 13.9953 11.2346 13.6676 11.2195 13.2813H12.2564C12.2715 13.4839 12.334 13.6525 12.4439 13.787C12.5537 13.9214 12.6967 14.0218 12.8729 14.0881C13.0509 14.1544 13.2498 14.1875 13.4695 14.1875C13.6986 14.1875 13.8994 14.1534 14.0717 14.0852C14.246 14.0152 14.3823 13.9186 14.4808 13.7955C14.5793 13.6705 14.6295 13.5246 14.6314 13.358C14.6295 13.2065 14.585 13.0815 14.4979 12.983C14.4107 12.8826 14.2886 12.7993 14.1314 12.733C13.9761 12.6648 13.7943 12.6042 13.5859 12.5512L12.924 12.3807C12.4448 12.2576 12.0661 12.071 11.7876 11.821C11.5111 11.5692 11.3729 11.2349 11.3729 10.8182C11.3729 10.4754 11.4657 10.1752 11.6513 9.91764C11.8388 9.66006 12.0935 9.46025 12.4155 9.3182C12.7375 9.17426 13.102 9.10229 13.5092 9.10229C13.9221 9.10229 14.2839 9.17426 14.5945 9.3182C14.907 9.46025 15.1522 9.65817 15.3303 9.91195C15.5083 10.1638 15.6001 10.4536 15.6058 10.7813H14.5916Z" fill="#667085"/>
<path d="M21.6051 11.1449H20.5426C20.5123 10.9707 20.4564 10.8163 20.375 10.6818C20.2936 10.5455 20.1922 10.4299 20.071 10.3352C19.9498 10.2406 19.8116 10.1695 19.6562 10.1222C19.5028 10.0729 19.3371 10.0483 19.1591 10.0483C18.8428 10.0483 18.5625 10.1279 18.3182 10.287C18.0739 10.4442 17.8826 10.6752 17.7443 10.9801C17.6061 11.2832 17.5369 11.6534 17.5369 12.0909C17.5369 12.536 17.6061 12.911 17.7443 13.2159C17.8845 13.519 18.0758 13.7481 18.3182 13.9034C18.5625 14.0568 18.8419 14.1335 19.1562 14.1335C19.3305 14.1335 19.4934 14.1108 19.6449 14.0654C19.7983 14.018 19.9356 13.9489 20.0568 13.858C20.1799 13.7671 20.2831 13.6553 20.3665 13.5227C20.4517 13.3902 20.5104 13.2387 20.5426 13.0682L21.6051 13.0739C21.5653 13.3504 21.4792 13.6099 21.3466 13.8523C21.2159 14.0947 21.0445 14.3087 20.8324 14.4943C20.6203 14.6781 20.3722 14.822 20.0881 14.9262C19.804 15.0284 19.4886 15.0796 19.142 15.0796C18.6307 15.0796 18.1742 14.9612 17.7727 14.7245C17.3712 14.4877 17.0549 14.1459 16.8239 13.6989C16.5928 13.2519 16.4773 12.7159 16.4773 12.0909C16.4773 11.464 16.5937 10.9281 16.8267 10.483C17.0597 10.036 17.3769 9.69415 17.7784 9.45741C18.1799 9.22067 18.6345 9.10229 19.142 9.10229C19.4659 9.10229 19.767 9.14775 20.0455 9.23866C20.3239 9.32957 20.572 9.46309 20.7898 9.63923C21.0076 9.81347 21.1866 10.0275 21.3267 10.2813C21.4687 10.5332 21.5616 10.821 21.6051 11.1449Z" fill="#667085"/>
</svg>
