<svg width="10" height="10" viewBox="0 0 10 10" fill="none" xmlns="http://www.w3.org/2000/svg">
<path d="M8.05552 6.11115H7.22219V3.88895H8.05552C9.11105 3.88895 10 3.0001 10 1.94448C10 0.888857 9.11114 0 8.05552 0C7 0 6.11114 0.888857 6.11114 1.94448V2.77781H3.88895L3.88886 1.94448C3.88886 0.888857 3 0 1.94448 0C0.888857 0 0 0.888857 0 1.94448C0 3 0.888857 3.88886 1.94448 3.88886H2.77781V6.11105L1.94448 6.11114C0.888857 6.11114 0 7 0 8.05552C0 9.11114 0.888857 10 1.94448 10C3 10 3.88895 9.11114 3.88895 8.05552L3.88886 7.22219H6.11105V8.05552C6.11105 9.11105 6.99991 10 8.05553 10C9.11105 10 10 9.11114 10 8.05552C10 7 9.11114 6.11115 8.05552 6.11115ZM7.22219 1.94448C7.22219 1.5 7.61114 1.11114 8.05552 1.11114C8.5 1.11114 8.88886 1.5 8.88886 1.94448C8.88886 2.38886 8.5 2.77781 8.05552 2.77781H7.22219V1.94448ZM2.7779 8.05543C2.7779 8.49991 2.38895 8.88876 1.94457 8.88876C1.50009 8.88876 1.11124 8.49991 1.11124 8.05543C1.11124 7.61105 1.50009 7.2221 1.94457 7.2221H2.7779V8.05543ZM1.94457 2.77781C1.50009 2.77781 1.11124 2.38886 1.11124 1.94448C1.11124 1.5 1.50009 1.11114 1.94457 1.11114C2.38895 1.11114 2.7779 1.5 2.7779 1.94448V2.77781H1.94457ZM3.88895 6.11115V3.88895H6.11114V6.11115H3.88895ZM8.05562 8.88876C7.61114 8.88876 7.22229 8.49991 7.22229 8.05543V7.2221H8.05562C8.5001 7.2221 8.88895 7.61095 8.88895 8.05543C8.88895 8.49991 8.5001 8.88876 8.05562 8.88876Z" fill="#667085"/>
</svg>
