<svg width="24" height="24" viewBox="0 0 24 24" fill="none" xmlns="http://www.w3.org/2000/svg">
<g clip-path="url(#clip0_89_806)">
<path fill-rule="evenodd" clip-rule="evenodd" d="M7.784 14L8.204 10H4V8H8.415L8.94 3H10.951L10.426 8H14.415L14.94 3H16.951L16.426 8H20V10H16.216L15.796 14H20V16H15.585L15.3225 18.5H13.3115L13.574 16H9.585L9.06 21H7.049L7.574 16H4V14H7.784ZM13.785 14H9.795L10.215 10H14.205L13.785 14Z" fill="#405BFF"/>
<path d="M13.2891 20.7906H13.4289V22.5V24.7732L14.7816 22.9463L16.3779 20.7906H20.556C20.8633 20.7906 21.1581 20.6685 21.3754 20.4512L20.8451 19.9209L21.3754 20.4512C21.5927 20.2339 21.7148 19.9391 21.7148 19.6318V13.9088C21.7148 13.6015 21.5927 13.3067 21.3754 13.0894C21.1581 12.8721 20.8633 12.75 20.556 12.75H13.1978C12.8905 12.75 12.5958 12.8721 12.3785 13.0894C12.1611 13.3067 12.0391 13.6015 12.0391 13.9088V19.5406C12.0391 20.2309 12.5987 20.7906 13.2891 20.7906Z" fill="#405BFF" stroke="white" stroke-width="1.5"/>
</g>
<defs>
<clipPath id="clip0_89_806">
<rect width="24" height="24" fill="white"/>
</clipPath>
</defs>
</svg>
