<svg width="36" height="36" viewBox="0 0 36 36" fill="none" xmlns="http://www.w3.org/2000/svg">
<g clip-path="url(#clip0_89_796)">
<g clip-path="url(#clip1_89_796)">
<rect x="3" y="3" width="29.9984" height="29.9984" fill="#475467"/>
<path d="M24.4975 11.896C23.3064 11.3524 22.0214 10.9588 20.6802 10.7339C20.6521 10.7339 20.6333 10.7433 20.6146 10.762C20.4457 11.0525 20.2675 11.4274 20.1362 11.718C18.6919 11.5024 17.2569 11.5024 15.85 11.718C15.7281 11.418 15.5405 11.0525 15.3717 10.762C15.3623 10.7433 15.3341 10.7339 15.3154 10.7339C13.9742 10.9588 12.6892 11.3618 11.4981 11.896C11.4887 11.896 11.4793 11.9054 11.47 11.9148C9.04077 15.4855 8.37486 18.9719 8.70313 22.4115C8.70313 22.4302 8.71251 22.449 8.73126 22.4583C10.3257 23.6205 11.8826 24.3234 13.402 24.792C13.4302 24.8013 13.4489 24.792 13.4677 24.7732C13.8241 24.2859 14.1524 23.7798 14.4244 23.2362C14.4431 23.2081 14.4244 23.1706 14.3962 23.1519C13.8898 22.9644 13.402 22.7301 12.9331 22.4677C12.8956 22.449 12.8956 22.3927 12.9237 22.374C13.0175 22.299 13.1207 22.224 13.2145 22.1491C13.2332 22.1397 13.252 22.1303 13.2707 22.1397C16.3377 23.5174 19.6673 23.5174 22.6967 22.1397C22.7155 22.1303 22.7436 22.1303 22.7624 22.1491C22.8562 22.224 22.95 22.299 23.0531 22.374C23.0906 22.4021 23.0813 22.449 23.0437 22.4677C22.5748 22.7395 22.0871 22.9644 21.5806 23.1519C21.5431 23.1612 21.5337 23.1987 21.5525 23.2362C21.8338 23.7704 22.1527 24.2859 22.5091 24.7639C22.5279 24.7826 22.5467 24.792 22.5748 24.7826C24.1036 24.314 25.6605 23.6111 27.2643 22.4583C27.2737 22.449 27.2831 22.4302 27.2925 22.4115C27.6864 18.4283 26.6359 14.9794 24.5163 11.9148C24.5163 11.9148 24.5069 11.9054 24.4975 11.896ZM14.8839 20.3215C13.9554 20.3215 13.1957 19.4874 13.1957 18.4658C13.1957 17.4443 13.946 16.6102 14.8839 16.6102C15.8312 16.6102 16.5816 17.4537 16.5722 18.4658C16.5722 19.4874 15.8219 20.3215 14.8839 20.3215ZM21.121 20.3215C20.1925 20.3215 19.4328 19.4874 19.4328 18.4658C19.4328 17.4443 20.1831 16.6102 21.121 16.6102C22.0683 16.6102 22.8186 17.4537 22.8093 18.4658C22.8093 19.4874 22.0683 20.3215 21.121 20.3215Z" fill="white"/>
</g>
</g>
<defs>
<clipPath id="clip0_89_796">
<rect width="36" height="36" fill="white"/>
</clipPath>
<clipPath id="clip1_89_796">
<rect x="3" y="3" width="29.9984" height="29.9984" rx="14.9992" fill="white"/>
</clipPath>
</defs>
</svg>
