<svg width="30" height="30" viewBox="0 0 30 30" fill="none" xmlns="http://www.w3.org/2000/svg">
<path d="M15 0C6.7125 0 2.18932e-06 6.7125 2.18932e-06 15C-0.00169914 18.1489 0.988223 21.2184 2.82933 23.773C4.67043 26.3276 7.26922 28.2376 10.257 29.232C11.007 29.3625 11.2875 28.9125 11.2875 28.518C11.2875 28.1625 11.268 26.982 11.268 25.725C7.5 26.4195 6.525 24.807 6.225 23.9625C6.0555 23.5305 5.325 22.2 4.6875 21.843C4.1625 21.5625 3.4125 20.868 4.668 20.85C5.85 20.8305 6.693 21.9375 6.975 22.3875C8.325 24.6555 10.482 24.018 11.343 23.625C11.475 22.65 11.868 21.9945 12.3 21.6195C8.9625 21.2445 5.475 19.95 5.475 14.2125C5.475 12.5805 6.0555 11.232 7.0125 10.1805C6.8625 9.8055 6.3375 8.268 7.1625 6.2055C7.1625 6.2055 8.418 5.8125 11.2875 7.7445C12.5086 7.40559 13.7703 7.23501 15.0375 7.2375C16.3125 7.2375 17.5875 7.4055 18.7875 7.743C21.6555 5.793 22.9125 6.207 22.9125 6.207C23.7375 8.2695 23.2125 9.807 23.0625 10.182C24.018 11.232 24.6 12.5625 24.6 14.2125C24.6 19.9695 21.0945 21.2445 17.757 21.6195C18.3 22.0875 18.7695 22.9875 18.7695 24.3945C18.7695 26.4 18.75 28.0125 18.75 28.5195C18.75 28.9125 19.032 29.3805 19.782 29.2305C22.7595 28.2252 25.3469 26.3115 27.1799 23.7587C29.0128 21.206 29.9992 18.1427 30 15C30 6.7125 23.2875 0 15 0Z" fill="#475467"/>
</svg>
