<svg width="119" height="24" viewBox="0 0 119 24" fill="none" xmlns="http://www.w3.org/2000/svg">
<path d="M12.973 11.3166C13.5672 10.9733 14.0689 10.5111 14.4739 9.91692C15.0725 9.04104 15.3718 8.01993 15.3718 6.85356C15.3718 5.85884 15.1297 4.93011 14.6455 4.06744C14.1614 3.20476 13.4659 2.51375 12.5549 1.98558C11.6438 1.45741 10.5478 1.19336 9.2626 1.19336H0.886719V22.6986H10.0108C11.3269 22.6986 12.4624 22.4434 13.4219 21.9372C14.3814 21.431 15.1209 20.718 15.6314 19.8025C16.142 18.887 16.4017 17.7999 16.4017 16.5455C16.4017 15.181 16.0188 14.0059 15.2529 13.0199C14.6719 12.2717 13.9105 11.7039 12.9774 11.3122L12.973 11.3166ZM3.57158 3.70655H9.23178C10.2485 3.70655 11.0672 4.00144 11.6966 4.58683C12.326 5.17221 12.6385 5.92927 12.6385 6.85797C12.6385 7.52698 12.4844 8.10795 12.1851 8.60531C11.8814 9.10267 11.4721 9.49 10.9615 9.76289C10.4466 10.0358 9.87439 10.1722 9.23619 10.1722H3.57599V3.70655H3.57158ZM13.1226 18.4777C12.7573 19.0147 12.2644 19.4328 11.635 19.7233C11.0056 20.0182 10.2969 20.1634 9.50028 20.1634H3.57158V12.681H9.79957C10.5654 12.681 11.2388 12.8527 11.8242 13.196C12.4052 13.5393 12.8585 14.0014 13.1843 14.578C13.5056 15.1546 13.6684 15.806 13.6684 16.5323C13.6684 17.2585 13.488 17.9363 13.1226 18.4733V18.4777Z" fill="#101828"/>
<path d="M20.7522 0.748047H18.0938V22.7023H20.7522V0.748047Z" fill="#101828"/>
<path d="M34.5963 7.20578C33.4299 6.48395 32.0435 6.12305 30.4281 6.12305C28.8128 6.12305 27.488 6.47958 26.3216 7.19261C25.1553 7.90564 24.2574 8.89597 23.6192 10.1724C22.981 11.4488 22.6641 12.932 22.6641 14.6222C22.6641 16.3123 22.9766 17.7604 23.606 19.0412C24.2354 20.3264 25.1288 21.3299 26.2864 22.0562C27.444 22.7824 28.826 23.1477 30.4325 23.1477C32.0391 23.1477 33.4211 22.7868 34.5831 22.0649C35.7494 21.3431 36.6429 20.344 37.2723 19.0632C37.9017 17.7824 38.2142 16.3035 38.2142 14.6222C38.2142 12.9409 37.9017 11.4884 37.2811 10.2076C36.6605 8.92676 35.767 7.92761 34.6007 7.20578H34.5963ZM34.1649 18.9532C33.3507 20.0667 32.1051 20.6257 30.4325 20.6257C28.76 20.6257 27.5804 20.0799 26.7442 18.9839C25.9079 17.888 25.4898 16.4356 25.4898 14.6222C25.4898 13.447 25.6702 12.4127 26.0267 11.5148C26.3832 10.6169 26.929 9.91705 27.6553 9.41088C28.3815 8.90472 29.3058 8.64945 30.4325 8.64945C32.0831 8.64945 33.3243 9.19085 34.1517 10.2692C34.9792 11.3475 35.3929 12.8 35.3929 14.6222C35.3929 16.4444 34.9836 17.8396 34.1693 18.9532H34.1649Z" fill="#101828"/>
<path d="M44.1323 9.41384C44.8497 8.90327 45.7608 8.64359 46.8655 8.64359C47.8514 8.64359 48.7229 8.90328 49.4844 9.41824C50.2458 9.93761 50.796 10.6639 51.1349 11.597L53.7625 10.8047C53.3444 9.35223 52.5213 8.20784 51.2889 7.37158C50.061 6.53531 48.5953 6.11719 46.8919 6.11719C45.281 6.11719 43.899 6.47373 42.7546 7.19116C41.6102 7.90859 40.73 8.90768 40.1182 10.1841C39.5064 11.4649 39.1895 12.9438 39.1719 14.6251C39.1939 16.2669 39.502 17.7325 40.0962 19.0177C40.6948 20.3029 41.5618 21.3109 42.7018 22.0415C43.8418 22.7721 45.2282 23.1374 46.8611 23.1374C48.4941 23.1374 49.9641 22.7369 51.1481 21.9447C52.3321 21.148 53.2036 19.9992 53.7625 18.4939L51.0733 17.7941C50.7168 18.7096 50.1886 19.4095 49.4888 19.8936C48.7934 20.3778 47.9175 20.6199 46.8611 20.6199C45.259 20.6199 44.053 20.0697 43.2388 18.9693C42.4289 17.869 42.0108 16.4253 41.9932 14.6295C42.002 13.4631 42.1824 12.4332 42.5302 11.5309C42.8779 10.6287 43.4104 9.9244 44.1279 9.40943L44.1323 9.41384Z" fill="#101828"/>
<path d="M68.1447 6.57187H64.694L57.929 14.336V1.19336H55.2442L55.2266 22.6986H57.929V14.9345L65.2618 22.6986H68.981L61.0232 14.6352L68.1447 6.57187Z" fill="#101828"/>
<path d="M72.3342 0.748047H69.6758V22.7023H72.3342V0.748047Z" fill="#101828"/>
<path d="M86.1568 7.24493C85.0168 6.49669 83.6348 6.12695 82.0107 6.12695C80.3866 6.12695 79.0881 6.47907 77.9262 7.1789C76.7642 7.87872 75.8619 8.87786 75.2149 10.1675C74.5679 11.4571 74.2422 12.9843 74.2422 14.7449C74.2422 16.5055 74.5723 17.8963 75.2281 19.1595C75.8839 20.4183 76.8038 21.3998 77.9834 22.0997C79.163 22.7995 80.545 23.1516 82.1295 23.1516C83.714 23.1516 85.1048 22.7599 86.3637 21.9808C87.6225 21.1974 88.5644 20.097 89.1938 18.671L86.6409 17.7907C86.192 18.7062 85.5758 19.4104 84.788 19.8946C84.0001 20.3831 83.0758 20.6252 82.0107 20.6252C80.4262 20.6252 79.207 20.1014 78.3531 19.0583C77.6137 18.156 77.1955 16.928 77.0943 15.3831H89.4667C89.5459 13.4729 89.2994 11.8224 88.7272 10.4404C88.155 9.05831 87.2968 7.99317 86.1568 7.24493ZM78.3531 10.097C79.207 9.04069 80.457 8.51253 82.1031 8.51253C83.6348 8.51253 84.7923 9.00108 85.567 9.98259C86.1788 10.7572 86.5573 11.8488 86.7026 13.244H77.1471C77.3056 11.9368 77.7105 10.8849 78.3531 10.0926V10.097Z" fill="#101828"/>
<path d="M101.448 14.5248C100.625 14.1023 99.5022 13.7106 98.0805 13.3541C96.8173 13.0372 95.8534 12.7511 95.1888 12.5046C94.5286 12.2537 94.0753 11.9941 93.8288 11.7124C93.5867 11.4351 93.4635 11.1006 93.4635 10.7132C93.4635 10.0178 93.7892 9.46323 94.4406 9.0539C95.092 8.64457 95.9415 8.4597 96.989 8.49932C98.0937 8.53013 98.996 8.79423 99.7002 9.29159C100.404 9.78895 100.818 10.4711 100.946 11.3382L103.666 10.8452C103.556 9.89895 103.204 9.07147 102.614 8.35844C102.02 7.64541 101.241 7.09524 100.277 6.70792C99.3129 6.32059 98.217 6.12695 96.9934 6.12695C95.7698 6.12695 94.6739 6.32059 93.7452 6.70792C92.8121 7.09524 92.0902 7.64541 91.5709 8.35844C91.0515 9.07147 90.7962 9.89895 90.7962 10.8452C90.7962 11.6111 90.9723 12.2625 91.32 12.7995C91.6677 13.3365 92.2487 13.8118 93.0673 14.2167C93.8816 14.6261 95.0039 15.0178 96.4256 15.3963C97.7416 15.7441 98.7231 16.0433 99.3745 16.2942C100.026 16.5451 100.457 16.8092 100.664 17.0953C100.871 17.377 100.977 17.751 100.977 18.2088C100.977 18.9966 100.664 19.6173 100.035 20.075C99.4054 20.5328 98.5427 20.7616 97.4379 20.7616C96.2716 20.7616 95.2988 20.5063 94.511 19.9914C93.7231 19.4808 93.2214 18.7854 93.0013 17.9095L90.2812 18.3409C90.5585 19.8549 91.3156 21.0301 92.5436 21.8708C93.7716 22.7115 95.3473 23.134 97.2707 23.134C99.1941 23.134 100.858 22.6894 102.007 21.7959C103.151 20.9069 103.723 19.6833 103.723 18.1296C103.723 17.2933 103.547 16.5891 103.199 16.0169C102.852 15.4447 102.266 14.9474 101.443 14.5248H101.448Z" fill="#101828"/>
<path d="M117.603 16.0169C117.255 15.4447 116.67 14.9474 115.847 14.5248C115.023 14.1023 113.901 13.7106 112.479 13.3541C111.216 13.0372 110.252 12.7511 109.588 12.5046C108.928 12.2537 108.474 11.9941 108.228 11.7124C107.986 11.4351 107.862 11.1006 107.862 10.7132C107.862 10.0178 108.188 9.46323 108.839 9.0539C109.491 8.64457 110.34 8.4597 111.384 8.49932C112.488 8.53013 113.391 8.79423 114.095 9.29159C114.795 9.78895 115.213 10.4711 115.34 11.3382L118.06 10.8452C117.95 9.89895 117.598 9.07147 117.009 8.35844C116.414 7.64541 115.635 7.09524 114.671 6.70792C113.707 6.32059 112.612 6.12695 111.388 6.12695C110.164 6.12695 109.073 6.32059 108.14 6.70792C107.207 7.09524 106.485 7.64541 105.965 8.35844C105.446 9.07147 105.191 9.89895 105.191 10.8452C105.191 11.6111 105.367 12.2625 105.715 12.7995C106.062 13.3365 106.643 13.8118 107.462 14.2167C108.276 14.6261 109.398 15.0178 110.82 15.3963C112.136 15.7441 113.118 16.0433 113.769 16.2942C114.42 16.5451 114.852 16.8092 115.059 17.0953C115.27 17.377 115.371 17.751 115.371 18.2088C115.371 18.9966 115.059 19.6173 114.429 20.075C113.8 20.5328 112.937 20.7616 111.832 20.7616C110.666 20.7616 109.693 20.5063 108.906 19.9914C108.118 19.4808 107.616 18.7854 107.396 17.9095L104.676 18.3409C104.953 19.8549 105.71 21.0301 106.938 21.8708C108.166 22.7115 109.742 23.134 111.665 23.134C113.589 23.134 115.252 22.6894 116.401 21.7959C117.545 20.9069 118.118 19.6833 118.118 18.1296C118.118 17.2933 117.942 16.5891 117.594 16.0169H117.603Z" fill="#101828"/>
</svg>
