<svg width="28" height="30" viewBox="0 0 28 30" fill="none" xmlns="http://www.w3.org/2000/svg">
<path d="M24.6391 5.38511L16.6505 0.772447C14.8635 -0.257482 12.6628 -0.257482 10.8759 0.772447L2.88732 5.38511C1.10035 6.41504 0 8.32084 0 10.3851V19.6148C0 21.6791 1.10035 23.585 2.88732 24.6149L10.8759 29.2276C12.6628 30.2575 14.8635 30.2575 16.6505 29.2276L24.6391 24.6149C26.426 23.585 27.5264 21.6791 27.5264 19.6148V10.3851C27.5264 8.32084 26.426 6.41504 24.6391 5.38511ZM23.6796 18.1668C23.6796 19.6985 22.8873 21.0717 21.5581 21.8376L15.6998 25.2135C15.0352 25.5964 14.3046 25.7856 13.5783 25.7856C12.8521 25.7856 12.1215 25.5964 11.4569 25.2135C10.3785 24.5929 9.66108 23.5673 9.42781 22.3877C8.99207 22.5374 8.53873 22.6166 8.08538 22.6166C7.35475 22.6166 6.62851 22.4273 5.9639 22.04C4.63468 21.2742 3.84242 19.901 3.84242 18.3693V11.6131C3.84242 10.0814 4.63468 8.7082 5.9639 7.94236C7.04225 7.32176 8.28784 7.21171 9.42781 7.59903C9.66548 6.41946 10.3785 5.39831 11.4569 4.77772C12.7861 4.01187 14.3706 4.01187 15.6998 4.77772L21.5581 8.15361C22.8873 8.91946 23.6796 10.2927 23.6796 11.8244C23.6796 13.0656 23.1514 14.1967 22.2447 14.989C23.1514 15.7812 23.6796 16.9124 23.6796 18.158V18.1668Z" fill="#101828"/>
<path d="M13.059 18.3605L20.2157 14.2364L20.6778 13.9723C21.4524 13.5278 21.9102 12.7311 21.9102 11.8376C21.9102 10.9441 21.448 10.1475 20.6778 9.70296L14.8195 6.32706C14.0449 5.88252 13.125 5.88252 12.3503 6.32706C11.5757 6.7716 11.1179 7.56825 11.1179 8.46173V8.48376L17.8829 12.3834C18.3054 12.6299 18.4507 13.1713 18.2086 13.5938C18.0458 13.8799 17.7465 14.0383 17.4384 14.0383C17.2887 14.0383 17.1347 13.9987 16.9938 13.9195L9.78873 9.76453C9.78873 9.76453 9.77992 9.75577 9.77112 9.75137L9.32657 9.49605C8.55192 9.05151 7.63204 9.05151 6.85739 9.49605C6.08274 9.94059 5.625 10.7373 5.625 11.6308V18.3869C5.625 19.276 6.08714 20.0727 6.85739 20.5216C7.63204 20.9661 8.55192 20.9661 9.32657 20.5216L9.34418 20.5128V15.011C9.34418 14.5225 9.74032 14.1263 10.2333 14.1263C10.7262 14.1263 11.1224 14.5225 11.1224 15.011V21.0234V21.5559C11.1224 22.445 11.5845 23.246 12.3547 23.6906C13.1294 24.1351 14.0493 24.1351 14.8239 23.6906L20.6822 20.3147C21.4569 19.8702 21.9146 19.0735 21.9146 18.18C21.9146 17.2865 21.4525 16.4899 20.6822 16.0453L20.6646 16.0365L13.9525 19.9054C13.8116 19.9846 13.662 20.0242 13.5079 20.0242C13.1998 20.0242 12.9005 19.8658 12.7377 19.5797C12.4912 19.1572 12.6364 18.6114 13.0634 18.3693L13.059 18.3605Z" fill="#101828"/>
</svg>
