<svg width="18" height="18" viewBox="0 0 18 18" fill="none" xmlns="http://www.w3.org/2000/svg">
<path d="M7.93939 15.9102C9.83542 15.9102 11.5655 15.2453 12.9401 14.1292L16.5662 17.7625C16.7321 17.9288 16.9454 18 17.1587 18C17.3719 18 17.5852 17.9288 17.7512 17.7625C18.0829 17.43 18.0829 16.9076 17.7512 16.5751L14.1015 12.9656C15.2154 11.5883 15.8789 9.85486 15.8789 7.9551C15.8789 3.56198 12.324 0 7.93947 0C3.55499 0 0 3.56198 0 7.9551C0.000165349 12.3482 3.55507 15.9102 7.93939 15.9102ZM7.93939 1.6623C11.3997 1.6623 14.2199 4.48818 14.2199 7.95514C14.2199 11.4222 11.3995 14.248 7.93939 14.248C4.47912 14.248 1.65891 11.4221 1.65891 7.95514C1.65891 4.48818 4.47924 1.6623 7.93939 1.6623Z" fill="#667085"/>
</svg>
