<svg xmlns="http://www.w3.org/2000/svg" width="17" height="17" viewBox="0 0 17 17" fill="none">
  <g clip-path="url(#clip0_66_128)">
    <path d="M12.6424 13.3471C12.5786 13.2514 12.5167 13.1546 12.4566 13.0566C12.717 12.9339 12.9718 12.799 13.22 12.6525L14.1244 12.1186L13.255 11.5294C13.1625 11.4667 13.0667 11.3938 12.9676 11.313L12.6431 11.0482L12.2642 11.2264C11.0866 11.7802 9.80128 12.0673 8.49997 12.0673C7.19866 12.0673 5.91338 11.7802 4.73579 11.2264L4.36925 11.054L4.04792 11.3006C3.93969 11.3837 3.83407 11.4643 3.72761 11.5415L2.90675 12.1369L3.77991 12.6525C4.02731 12.7986 4.28124 12.933 4.54086 13.0554C4.48074 13.1536 4.41876 13.2506 4.35496 13.3464C3.23485 12.9603 2.17429 12.4184 1.20458 11.7367C1.00341 9.05536 1.544 6.34531 3.38693 3.5499C4.18926 3.19709 5.02582 2.92864 5.88309 2.74874C5.94348 2.87262 6.00083 2.99797 6.05509 3.1247L6.25736 3.59709L6.7655 3.52052C7.91407 3.34744 9.0821 3.34744 10.2307 3.52052L10.7389 3.59711L10.9411 3.12456C10.9954 2.99769 11.0528 2.87219 11.1133 2.74819C11.9703 2.92709 12.8066 3.19512 13.6084 3.54806C15.2173 5.96169 16.0287 8.6509 15.7956 11.7379C14.8254 12.4204 13.7638 12.9621 12.6424 13.3471ZM3.73619 8.67322C3.73619 9.85725 4.62476 10.9352 5.84212 10.9352C7.088 10.9352 7.92848 9.84383 7.94671 8.68367C7.96546 7.49046 7.07657 6.40495 5.8396 6.40495C4.5918 6.40495 3.73619 7.5007 3.73619 8.67322ZM9.05315 8.67322C9.05315 9.85607 9.93814 10.9352 11.1578 10.9352C12.4044 10.9352 13.2429 9.84303 13.2612 8.68367C13.2799 7.49323 12.3986 6.40495 11.1578 6.40495C9.90911 6.40495 9.05315 7.5003 9.05315 8.67322Z" fill="#0F172A" stroke="#0F172A" stroke-width="1.33"/>
  </g>
  <defs>
    <clipPath id="clip0_66_128">
      <rect width="16" height="16" fill="white" transform="translate(0.5 0.00341797)"/>
    </clipPath>
  </defs>
</svg>