<svg width="25" height="25" viewBox="0 0 25 25" fill="none" xmlns="http://www.w3.org/2000/svg">
<path fill-rule="evenodd" clip-rule="evenodd" d="M12.5 0C5.59644 0 0 5.59644 0 12.5C0 19.4036 5.59644 25 12.5 25C19.4036 25 25 19.4036 25 12.5C25 5.59644 19.4036 0 12.5 0ZM14.734 6.44519C15.8518 6.63264 16.9226 6.96068 17.9153 7.41369L17.9309 7.42931C19.6974 9.98333 20.5728 12.8576 20.2445 16.177C20.2367 16.1926 20.2289 16.2083 20.2211 16.2161C18.8845 17.1768 17.587 17.7625 16.3129 18.1531C16.2895 18.1609 16.2739 18.1531 16.2582 18.1374C15.9612 17.7391 15.6954 17.3095 15.461 16.8643C15.4453 16.8331 15.4531 16.8019 15.4844 16.794C15.9065 16.6378 16.3129 16.4504 16.7037 16.2239C16.735 16.2083 16.7428 16.1692 16.7116 16.1458C16.6256 16.0833 16.5474 16.0208 16.4693 15.9584L16.4693 15.9583C16.4536 15.9427 16.4302 15.9427 16.4145 15.9505C13.8899 17.0987 11.1151 17.0987 8.55915 15.9505C8.54352 15.9427 8.52789 15.9505 8.51225 15.9583C8.47317 15.9896 8.43213 16.0208 8.39109 16.0521C8.35006 16.0833 8.30903 16.1145 8.26995 16.1458C8.2465 16.1614 8.2465 16.2083 8.27777 16.2239C8.66858 16.4426 9.07503 16.6378 9.49711 16.794C9.52056 16.8097 9.53619 16.8409 9.52056 16.8643C9.29389 17.3173 9.02031 17.7391 8.7233 18.1453C8.70766 18.1609 8.69203 18.1687 8.66858 18.1609C7.40234 17.7704 6.10483 17.1846 4.77606 16.2161C4.76043 16.2083 4.75261 16.1926 4.75261 16.177C4.47904 13.3106 5.034 10.4051 7.05842 7.42931C7.06624 7.4215 7.07405 7.41369 7.08187 7.41369C8.07454 6.96849 9.14538 6.63264 10.2631 6.44519C10.2787 6.44519 10.3022 6.453 10.31 6.46862C10.4507 6.71075 10.607 7.01535 10.7086 7.26529C11.8811 7.08565 13.077 7.08565 14.2807 7.26529C14.3901 7.02316 14.5386 6.71075 14.6793 6.46862C14.695 6.453 14.7106 6.44519 14.734 6.44519ZM8.49662 12.8888C8.49662 13.7402 9.12974 14.4353 9.90356 14.4353C10.6852 14.4353 11.3105 13.7402 11.3105 12.8888C11.3183 12.0453 10.693 11.3423 9.90356 11.3423C9.12193 11.3423 8.49662 12.0375 8.49662 12.8888ZM13.6945 12.8888C13.6945 13.7402 14.3276 14.4353 15.1014 14.4353C15.8909 14.4353 16.5083 13.7402 16.5083 12.8888C16.5162 12.0453 15.8909 11.3423 15.1014 11.3423C14.3198 11.3423 13.6945 12.0375 13.6945 12.8888Z" fill="#344054"/>
</svg>
