<svg xmlns="http://www.w3.org/2000/svg" width="17" height="17" viewBox="0 0 17 17" fill="none">
  <g clip-path="url(#clip0_66_59)">
    <path d="M10.4999 14.67V12.0033C10.5927 11.1682 10.3532 10.3301 9.83328 9.67C11.8333 9.67 13.8333 8.33667 13.8333 6.00334C13.8866 5.17 13.6533 4.35 13.1666 3.67C13.3533 2.90334 13.3533 2.10334 13.1666 1.33667C13.1666 1.33667 12.4999 1.33667 11.1666 2.33667C9.40661 2.00334 7.59328 2.00334 5.83328 2.33667C4.49994 1.33667 3.83328 1.33667 3.83328 1.33667C3.63328 2.10334 3.63328 2.90334 3.83328 3.67C3.34786 4.34726 3.11226 5.17186 3.16661 6.00334C3.16661 8.33667 5.16661 9.67 7.16661 9.67C6.90661 9.99667 6.71328 10.37 6.59994 10.77C6.48661 11.17 6.45328 11.59 6.49994 12.0033V14.67" stroke="#0F172A" stroke-width="1.33" stroke-linecap="round" stroke-linejoin="round"/>
    <path d="M6.50004 12.0035C3.49337 13.3368 3.16671 10.6702 1.83337 10.6702" stroke="#0F172A" stroke-width="1.33" stroke-linecap="round" stroke-linejoin="round"/>
  </g>
  <defs>
    <clipPath id="clip0_66_59">
      <rect width="16" height="16" fill="white" transform="translate(0.5 0.00341797)"/>
    </clipPath>
  </defs>
</svg>