<svg xmlns="http://www.w3.org/2000/svg" width="17" height="17" viewBox="0 0 17 17" fill="none">
  <g clip-path="url(#clip0_66_30)">
    <path fill-rule="evenodd" clip-rule="evenodd" d="M1.59992 7.04487C5.89488 5.17363 8.75885 3.93999 10.1919 3.34395C14.2834 1.64216 15.1335 1.34654 15.6877 1.33677C15.8095 1.33463 16.0821 1.36483 16.2586 1.50806C16.4076 1.62901 16.4486 1.79238 16.4683 1.90705C16.4879 2.02172 16.5123 2.28293 16.4929 2.48704C16.2712 4.81667 15.3118 10.4701 14.8237 13.0793C14.6172 14.1834 14.2105 14.5535 13.8169 14.5898C12.9613 14.6685 12.3116 14.0243 11.4829 13.4811C10.1862 12.6312 9.4537 12.102 8.19503 11.2726C6.74043 10.314 7.68338 9.78718 8.51236 8.92617C8.72931 8.70084 12.499 5.27204 12.5719 4.96099C12.5811 4.92209 12.5895 4.77708 12.5034 4.70051C12.4172 4.62394 12.2901 4.65013 12.1983 4.67095C12.0683 4.70047 9.9968 6.06964 5.98389 8.77847C5.39591 9.18223 4.86333 9.37895 4.38616 9.36864C3.86012 9.35728 2.84822 9.07121 2.09598 8.82668C1.17333 8.52677 0.440022 8.3682 0.503876 7.85884C0.537136 7.59354 0.902482 7.32222 1.59992 7.04487Z" fill="#0F172A"/>
  </g>
  <defs>
    <clipPath id="clip0_66_30">
      <rect width="16" height="16" fill="white" transform="translate(0.5 0.00341797)"/>
    </clipPath>
  </defs>
</svg>