<svg width="25" height="25" viewBox="0 0 25 25" fill="none" xmlns="http://www.w3.org/2000/svg">
<circle cx="12.5" cy="12.5" r="12.5" fill="#344054"/>
<path d="M17.9346 7.38592L15.6129 16.9356C15.5037 17.3853 14.9984 17.617 14.5841 17.4035L11.6477 15.8906L10.2592 18.1576C9.8814 18.7755 8.9254 18.5075 8.9254 17.7851V15.2591C8.9254 15.0637 9.0073 14.8775 9.14844 14.7412L14.8709 9.28941C14.8663 9.22127 14.7935 9.16225 14.7207 9.21214L7.89216 13.9552L5.59779 12.7739C5.06066 12.4968 5.08343 11.7199 5.63874 11.4792L16.9515 6.55909C17.4932 6.3228 18.076 6.80896 17.9349 7.38588L17.9346 7.38592Z" fill="white"/>
</svg>
