<svg viewBox="0 0 360 230" fill="none" xmlns="http://www.w3.org/2000/svg">
<path d="M268.39 62.3208C276.948 53.8461 276.811 40.2231 268.083 31.893C259.355 23.5629 245.342 23.6802 236.783 32.1549L156.979 111.179C148.42 119.654 148.558 133.277 157.286 141.607C166.013 149.937 180.027 149.82 188.585 141.345L268.39 62.3208Z" fill="#E2E8F0"/>
<path d="M285.003 177.033C249.115 172.477 223.212 141.329 225.443 106.462C225.585 104.245 227.598 102.68 229.788 102.958L356.778 119.081C358.968 119.359 360.531 121.378 360.121 123.561C353.672 157.893 320.89 181.589 285.003 177.033Z" fill="#E2E8F0"/>
<path d="M143.693 204.792C165.929 183.038 175.345 157.184 165.234 147.292C155.123 137.4 128.489 146.818 106.253 168.573C84.0166 190.328 74.6003 216.181 84.7108 226.073C94.8217 235.965 121.457 226.547 143.693 204.792Z" fill="#E2E8F0"/>
<path d="M136.856 35.653C135.876 35.4305 135.108 34.8959 134.552 34.0491C134.022 33.2083 133.874 32.2877 134.107 31.2874C134.333 30.3134 134.87 29.5623 135.718 29.0342C136.593 28.5121 137.52 28.3623 138.5 28.5848C139.48 28.8073 140.235 29.339 140.764 30.1798C141.32 31.0266 141.485 31.937 141.259 32.911C141.026 33.9113 140.472 34.6725 139.598 35.1946C138.75 35.7227 137.836 35.8755 136.856 35.653ZM152.288 11.3863C151.282 11.1578 150.5 10.6202 149.944 9.77337C149.415 8.93258 149.266 8.01201 149.499 7.01168C149.732 6.01134 150.272 5.24712 151.12 4.71902C151.994 4.19694 152.935 4.05015 153.941 4.27866C154.948 4.50716 155.716 5.04181 156.245 5.8826C156.775 6.72339 156.923 7.64395 156.691 8.64429C156.458 9.64463 155.918 10.4088 155.07 10.9369C154.222 11.465 153.295 11.6148 152.288 11.3863ZM180.97 8.21119C179.963 7.98269 179.195 7.44804 178.666 6.60725C178.142 5.74014 177.994 4.81957 178.221 3.84556C178.453 2.84522 178.993 2.081 179.841 1.5529C180.689 1.02481 181.616 0.875013 182.623 1.10352C183.603 1.32601 184.358 1.85765 184.888 2.69844C185.417 3.53923 185.565 4.45979 185.333 5.46013C185.106 6.43415 184.566 7.19837 183.712 7.75279C182.864 8.28088 181.95 8.43369 180.97 8.21119ZM205.372 23.437C204.366 23.2085 203.584 22.6709 203.028 21.8241C202.499 20.9833 202.35 20.0627 202.583 19.0624C202.816 18.062 203.356 17.2978 204.204 16.7697C205.078 16.2476 206.019 16.1009 207.025 16.3294C208.005 16.5519 208.76 17.0835 209.29 17.9243C209.846 18.7711 210.007 19.6947 209.775 20.695C209.542 21.6953 208.989 22.4565 208.114 22.9786C207.266 23.5067 206.352 23.6595 205.372 23.437ZM208.496 51.9161C207.489 51.6875 206.721 51.1529 206.191 50.3121C205.662 49.4713 205.513 48.5508 205.746 47.5504C205.973 46.5764 206.51 45.8253 207.358 45.2973C208.206 44.7692 209.133 44.6194 210.139 44.8479C211.146 45.0764 211.914 45.611 212.444 46.4518C212.973 47.2926 213.125 48.2 212.898 49.174C212.666 50.1744 212.125 50.9386 211.277 51.4667C210.429 51.9948 209.502 52.1446 208.496 51.9161ZM179.115 16.1876C182.506 16.9573 185.533 18.2682 188.198 20.1203C190.869 21.946 193.078 24.1382 194.826 26.6966C196.579 29.2287 197.75 31.9888 198.338 34.9769C198.959 37.9446 198.914 40.9553 198.204 44.009C197.579 46.6941 196.727 49.0367 195.649 51.0367C194.597 53.0427 193.362 54.9935 191.945 56.889C190.561 58.7642 189.069 60.8643 187.468 63.1893C185.9 65.4939 184.285 68.3007 182.623 71.6094C180.961 74.9182 179.324 79.0223 177.71 83.9218C177.51 84.5415 177.182 84.9936 176.725 85.278C176.302 85.542 175.732 85.5929 175.017 85.4305L152.21 80.253C151.468 80.0846 150.965 79.7903 150.7 79.3699C150.441 78.9232 150.346 78.3749 150.413 77.7251C151.126 72.6211 151.466 68.2224 151.433 64.5287C151.399 60.8351 151.173 57.6105 150.754 54.8548C150.368 52.0788 149.966 49.5488 149.549 47.2647C149.139 44.9542 148.89 42.6667 148.803 40.4021C148.716 38.1375 148.985 35.6627 149.609 32.9776C150.32 29.9239 151.609 27.1958 153.479 24.7933C155.354 22.3645 157.627 20.3861 160.297 18.8582C163 17.31 165.956 16.2905 169.166 15.7997C172.381 15.2826 175.698 15.4119 179.115 16.1876ZM150.541 87.6067C149.985 87.4804 149.551 87.1879 149.239 86.7291C148.96 86.25 148.885 85.7341 149.014 85.1813C149.148 84.6021 149.444 84.1704 149.901 83.886C150.384 83.6077 150.903 83.5317 151.46 83.6579L174.187 88.8174C174.744 88.9437 175.177 89.2362 175.489 89.6949C175.801 90.1536 175.889 90.6726 175.754 91.2517C175.626 91.8046 175.317 92.2333 174.828 92.538C174.345 92.8163 173.825 92.8924 173.269 92.7661L150.541 87.6067ZM159.49 100.571C156.603 99.916 154.289 98.7118 152.549 96.9589C150.836 95.212 150.168 93.2866 150.546 91.1829L171.724 95.9906C171.108 98.0402 169.63 99.4784 167.291 100.305C164.951 101.132 162.351 101.221 159.49 100.571Z" fill="#94A3B8"/>
<path d="M353.831 106.67C353.118 109.32 351.905 111.521 350.191 113.271C348.456 114.986 346.379 116.111 343.96 116.646C341.485 117.167 338.826 116.959 335.984 116.022C332.895 114.99 329.38 113.511 325.439 111.587C321.477 109.628 317.302 107.672 312.914 105.72C308.504 103.732 304.092 102.151 299.676 100.977C297.355 100.36 295.227 100.323 293.291 100.867C291.335 101.374 289.413 102.147 287.526 103.187C285.639 104.226 283.685 105.233 281.664 106.207C279.643 107.18 277.418 107.843 274.988 108.194C272.522 108.566 269.73 108.292 266.61 107.372C263.017 106.297 259.979 104.401 257.494 101.686C254.952 98.9553 253.211 95.788 252.269 92.1836C251.271 88.5641 251.301 84.9006 252.358 81.193C252.601 80.2905 252.914 79.4671 253.296 78.7226C253.621 77.963 253.945 77.3238 254.266 76.8049L263.871 86.4288C265.136 87.7018 266.406 88.2811 267.68 88.1666C268.955 88.052 270.109 87.4825 271.142 86.4579L277.045 80.412L263.823 67.1523C265.329 65.9511 267.167 65.0347 269.339 64.4032C271.49 63.736 273.789 63.5314 276.237 63.7892C278.649 64.0678 281.026 64.9866 283.367 66.5455C285.687 68.0687 287.759 70.4023 289.582 73.5462C290.764 75.5825 292.452 77.7083 294.646 79.9234C296.805 82.1592 299.441 83.6909 302.555 84.5186C305.895 85.4064 309.512 86.111 313.406 86.6323C317.3 87.1535 321.159 87.5752 324.985 87.8971C328.776 88.2398 332.257 88.5458 335.43 88.815C338.639 89.0636 341.182 89.3619 343.06 89.71C346.008 90.2518 348.406 91.3727 350.254 93.0726C352.081 94.7368 353.309 96.7703 353.936 99.1733C354.543 101.54 354.508 104.039 353.831 106.67ZM344.012 100.887C343.412 99.8507 342.527 99.1926 341.359 98.9123C340.227 98.6113 339.14 98.7606 338.099 99.3603C337.094 99.9393 336.44 100.793 336.137 101.921C335.833 103.049 335.982 104.131 336.583 105.167C337.184 106.203 338.061 106.889 339.214 107.226C340.367 107.563 341.446 107.442 342.451 106.863C343.492 106.263 344.154 105.381 344.436 104.218C344.755 103.033 344.613 101.923 344.012 100.887Z" fill="#94A3B8"/>
<path d="M174.481 230.007C173.592 229.743 172.98 229.236 172.646 228.485C172.312 227.735 172.299 226.844 172.606 225.811L176.123 213.985L173.537 213.216C169.901 212.135 167.005 210.534 164.851 208.414C162.696 206.293 161.329 203.742 160.75 200.758C160.199 197.783 160.464 194.475 161.548 190.832L171.298 158.048C172.39 154.378 173.976 151.462 176.056 149.299C178.17 147.117 180.71 145.727 183.673 145.129C186.644 144.504 189.948 144.732 193.585 145.813L247 161.7C250.637 162.782 253.528 164.396 255.675 166.544C257.83 168.664 259.183 171.212 259.735 174.187C260.313 177.17 260.061 180.483 258.978 184.126L249.227 216.91C248.144 220.552 246.544 223.465 244.429 225.646C242.35 227.809 239.824 229.203 236.853 229.828C233.889 230.427 230.589 230.185 226.953 229.103L197.296 220.283L178.752 229.103C177.822 229.566 177.04 229.881 176.404 230.047C175.768 230.213 175.127 230.2 174.481 230.007ZM206.985 195.691C207.766 195.923 208.45 195.89 209.037 195.591C209.633 195.266 210.031 194.763 210.234 194.083C210.274 193.947 210.314 193.811 210.355 193.675C210.403 193.512 210.444 193.376 210.476 193.268C210.848 192.017 211.5 191.057 212.432 190.388C213.372 189.691 214.76 189.068 216.594 188.519C219.054 187.741 221.073 186.818 222.652 185.749C224.238 184.652 225.371 182.963 226.051 180.679C226.673 178.586 226.637 176.637 225.942 174.833C225.283 173.009 224.141 171.427 222.516 170.086C220.892 168.745 218.949 167.737 216.686 167.065C213.265 166.047 210.264 165.983 207.684 166.872C205.138 167.743 203.337 169.115 202.281 170.991C202.111 171.266 201.955 171.545 201.812 171.828C201.696 172.119 201.589 172.427 201.492 172.754C201.266 173.515 201.321 174.167 201.658 174.711C202.029 175.236 202.498 175.583 203.064 175.751C203.63 175.919 204.141 175.923 204.599 175.764C205.057 175.604 205.482 175.36 205.872 175.033L206.571 174.309C207.196 173.489 207.959 172.798 208.859 172.237C209.758 171.676 210.744 171.319 211.817 171.164C212.889 171.01 214.004 171.105 215.162 171.449C217.263 172.074 218.789 173.105 219.74 174.541C220.691 175.978 220.911 177.553 220.402 179.265C219.973 180.706 219.183 181.788 218.03 182.51C216.903 183.24 215.204 183.977 212.93 184.721C211.009 185.363 209.422 186.164 208.17 187.123C206.917 188.081 206.008 189.512 205.442 191.415C205.393 191.578 205.345 191.741 205.296 191.905C205.256 192.04 205.211 192.19 205.163 192.353C204.653 194.066 205.261 195.178 206.985 195.691ZM203.334 207.521C204.385 207.833 205.396 207.735 206.369 207.225C207.368 206.723 208.022 205.956 208.329 204.923C208.636 203.89 208.522 202.895 207.986 201.936C207.45 200.978 206.643 200.339 205.566 200.018C204.542 199.714 203.544 199.816 202.572 200.326C201.599 200.836 200.959 201.607 200.652 202.64C200.345 203.673 200.459 204.668 200.995 205.627C201.531 206.585 202.311 207.216 203.334 207.521Z" fill="#CBD5E1"/>
<path d="M56.6189 149.351L29.9813 149.34C24.0254 149.343 18.523 152.564 15.5431 157.793L2.23356 181.192C-0.746383 186.422 -0.74418 192.869 2.23814 198.107L15.5727 221.528C18.555 226.766 24.0597 229.991 30.0156 229.989L56.6532 230C62.6091 229.998 68.1115 226.776 71.0915 221.547L84.4009 198.148C87.3809 192.919 87.3786 186.472 84.3963 181.233L71.0617 157.812C68.0794 152.574 62.5748 149.349 56.6189 149.351ZM72.6861 183.19C74.899 187.077 74.9021 191.721 72.6851 195.61L62.9151 212.753C61.8066 214.697 60.2532 216.247 58.4374 217.31C56.6217 218.373 54.5215 218.962 52.3066 218.964C48.7138 218.967 45.4384 217.415 43.1509 214.763C42.2777 215.781 41.2587 216.646 40.1252 217.309C38.2984 218.379 36.2092 218.962 33.9879 218.952C29.558 218.954 25.5932 216.629 23.3803 212.742L13.6194 195.598C11.4065 191.711 11.4034 187.067 13.6204 183.178C15.42 180.025 18.3753 177.922 21.7851 177.236C20.6752 173.895 20.9827 170.26 22.7823 167.107C24.9992 163.217 28.9609 160.898 33.3908 160.896L52.9154 160.887C57.3453 160.884 61.3101 163.209 63.523 167.096C65.3162 170.245 65.6298 173.889 64.5074 177.227C67.919 177.91 70.8738 180.007 72.6734 183.168L72.6861 183.19Z" fill="#94A3B8"/>
<path d="M46.4094 199.225L58.3448 178.283L59.1188 176.937C60.4134 174.675 60.407 171.983 59.1161 169.716C57.8253 167.449 55.5188 166.104 52.9507 166.103L33.4261 166.112C30.8471 166.118 28.5471 167.465 27.2525 169.727C25.9579 171.989 25.9643 174.68 27.2552 176.947L27.287 177.003L49.8353 176.996C51.2478 177.003 52.3931 178.164 52.3983 179.591C52.4045 180.555 51.8851 181.395 51.1147 181.846C50.7406 182.065 50.2982 182.19 49.8316 182.195L25.814 182.199C25.814 182.199 25.7793 182.19 25.7509 182.191L24.2706 182.194C21.6915 182.2 19.3915 183.547 18.0969 185.809C16.8024 188.071 16.8089 190.763 18.0997 193.03L27.8606 210.174C29.1451 212.43 31.4515 213.775 34.026 213.787C36.605 213.781 38.905 212.434 40.1996 210.172L40.2309 210.124L32.2823 196.163C31.5765 194.923 31.9946 193.338 33.2271 192.617C34.4597 191.895 36.0224 192.32 36.7282 193.56L46.1839 210.168C47.4684 212.424 49.7812 213.781 52.3492 213.781C54.9283 213.775 57.2283 212.429 58.5229 210.167L68.293 193.025C69.5876 190.763 69.581 188.071 68.2902 185.804C66.9993 183.536 64.6929 182.191 62.1248 182.191L62.0681 182.194L50.8753 201.837C50.6376 202.244 50.3207 202.564 49.9356 202.789C49.1652 203.24 48.188 203.276 47.3675 202.789C46.1408 202.077 45.7154 200.48 46.4332 199.241L46.4094 199.225Z" fill="#94A3B8"/>
<path d="M300.731 177.227C272.398 177.227 249.183 198.733 247.109 226.021C246.942 228.215 248.741 230.004 250.941 230.004H350.521C352.721 230.004 354.52 228.215 354.353 226.021C352.279 198.733 329.064 177.227 300.731 177.227Z" fill="#E2E8F0"/>
<path fillRule="evenodd" clipRule="evenodd" d="M99.0523 161.958C129.959 160.791 154.095 135.464 152.962 105.387C151.828 75.3103 125.855 51.8747 94.9483 53.0418C64.0415 54.2088 39.905 79.5365 41.0383 109.613C42.1716 139.69 68.1455 163.125 99.0523 161.958ZM89.2008 117.282C89.932 117.839 90.944 118.094 92.2371 118.045L92.8002 118.024C95.7199 117.913 97.9023 117.078 99.3472 115.519C100.792 113.959 101.46 111.717 101.349 108.794L100.615 89.3157C100.578 88.3136 100.257 87.5522 99.6522 87.0314C99.0463 86.4689 98.2427 86.2065 97.2417 86.2443C96.2823 86.2805 95.5217 86.602 94.9598 87.2086C94.3963 87.7734 94.1334 88.5569 94.1712 89.5591L94.9264 109.601C94.9484 110.186 94.7772 110.632 94.4128 110.938C94.0901 111.243 93.6994 111.404 93.2406 111.421L91.1133 111.502C90.1957 111.536 89.4358 111.879 88.8338 112.529C88.2719 113.135 88.0082 113.898 88.0428 114.816C88.0821 115.86 88.4682 116.682 89.2008 117.282ZM70.4949 103.06C71.3158 103.782 72.331 104.12 73.5406 104.074C74.7502 104.028 75.7371 103.615 76.5013 102.833C77.2655 102.052 77.6232 101.014 77.5744 99.7194L77.2558 91.264C77.2086 90.0114 76.7746 89.0242 75.9538 88.3026C75.1314 87.5391 74.1154 87.1803 72.9058 87.2259C71.6961 87.2716 70.71 87.7061 69.9474 88.5294C69.2249 89.3093 68.8873 90.3256 68.9345 91.5783L69.2531 100.034C69.3019 101.328 69.7158 102.337 70.4949 103.06ZM116.606 101.319C117.385 102.042 118.401 102.38 119.652 102.333C120.862 102.287 121.828 101.874 122.55 101.095C123.314 100.313 123.672 99.275 123.623 97.9806L123.305 89.5252C123.257 88.2726 122.823 87.2854 122.003 86.5638C121.222 85.7988 120.227 85.4391 119.017 85.4848C117.766 85.532 116.78 85.9665 116.059 86.7882C115.336 87.5681 114.999 88.5844 115.046 89.8371L115.364 98.2925C115.413 99.5869 115.827 100.596 116.606 101.319ZM86.7876 136.377C90.3865 137.663 94.0004 138.238 97.6292 138.101C101.258 137.963 104.776 137.099 108.183 135.507C111.63 133.871 114.639 131.688 117.209 128.956C117.49 128.653 117.707 128.31 117.86 127.928C118.011 127.504 118.076 127.021 118.056 126.478C118.019 125.518 117.677 124.757 117.03 124.196C116.382 123.635 115.62 123.372 114.744 123.405C113.827 123.439 112.947 123.932 112.106 124.884C110.382 126.789 108.207 128.376 105.581 129.646C102.996 130.873 100.264 131.541 97.3862 131.649C94.675 131.752 91.9634 131.29 89.2514 130.263C86.5394 129.236 84.2304 127.818 82.3243 126.009C81.8498 125.608 81.3992 125.291 80.9727 125.056C80.5878 124.82 80.1034 124.713 79.5195 124.735C78.6018 124.769 77.8412 125.091 77.2376 125.699C76.6339 126.307 76.3502 127.091 76.3864 128.052C76.4037 128.511 76.5036 128.946 76.6862 129.358C76.9089 129.726 77.1934 130.07 77.5397 130.392C80.1045 133.055 83.1871 135.05 86.7876 136.377Z" fill="#CBD5E1"/>
</svg>
