<svg width="708" height="139" viewBox="0 0 708 139" fill="none" xmlns="http://www.w3.org/2000/svg">
<path d="M319.345 2.11279L172.856 294.964" stroke="#D9DEF9" stroke-linecap="round" stroke-linejoin="round"/>
<path d="M205.728 2.11353L-11.4141 110.779" stroke="#D9DEF9" stroke-linecap="round" stroke-linejoin="round"/>
<path d="M167.858 2.11353L-11.4141 73.8918" stroke="#D9DEF9" stroke-linecap="round" stroke-linejoin="round"/>
<path d="M129.992 2.11353L-11.4141 49.2966" stroke="#D9DEF9" stroke-linecap="round" stroke-linejoin="round"/>
<path d="M243.6 2.11353L-11.4141 172.245" stroke="#D9DEF9" stroke-linecap="round" stroke-linejoin="round"/>
<path d="M92.1222 2.11353L-11.4141 31.726" stroke="#D9DEF9" stroke-linecap="round" stroke-linejoin="round"/>
<path d="M16.3817 2.11353L-11.4141 8.29773" stroke="#D9DEF9" stroke-linecap="round" stroke-linejoin="round"/>
<path d="M54.252 2.11353L-11.4141 18.5469" stroke="#D9DEF9" stroke-linecap="round" stroke-linejoin="round"/>
<path d="M622.308 2.11279L725.973 31.7789" stroke="#D9DEF9" stroke-linecap="round" stroke-linejoin="round"/>
<path d="M357.228 2.11279L356.974 294.964" stroke="#D9DEF9" stroke-linecap="round" stroke-linejoin="round"/>
<path d="M660.205 2.11279L726 18.585" stroke="#D9DEF9" stroke-linecap="round" stroke-linejoin="round"/>
<path d="M698.031 2.11279L725.959 8.32782" stroke="#D9DEF9" stroke-linecap="round" stroke-linejoin="round"/>
<path d="M584.453 2.11279L725.989 49.3678" stroke="#D9DEF9" stroke-linecap="round" stroke-linejoin="round"/>
<path d="M546.585 2.11279L725.991 73.9904" stroke="#D9DEF9" stroke-linecap="round" stroke-linejoin="round"/>
<path d="M470.833 2.11279L725.976 172.528" stroke="#D9DEF9" stroke-linecap="round" stroke-linejoin="round"/>
<path d="M508.701 2.11279L725.974 110.938" stroke="#D9DEF9" stroke-linecap="round" stroke-linejoin="round"/>
<path d="M395.096 2.11279L541.08 294.964" stroke="#D9DEF9" stroke-linecap="round" stroke-linejoin="round"/>
<path d="M281.494 2.11279L-11.2295 294.964" stroke="#D9DEF9" stroke-linecap="round" stroke-linejoin="round"/>
<path d="M432.964 2.11279L725.186 294.964" stroke="#D9DEF9" stroke-linecap="round" stroke-linejoin="round"/>
<path d="M725.956 42.0789H-11.4141" stroke="#D9DEF9" stroke-linecap="round" stroke-linejoin="round"/>
<path d="M725.956 15.2772H-11.4141" stroke="#D9DEF9" stroke-linecap="round" stroke-linejoin="round"/>
<path d="M725.956 20.7418H-11.4141" stroke="#D9DEF9" stroke-linecap="round" stroke-linejoin="round"/>
<path d="M725.956 26.9221H-11.4141" stroke="#D9DEF9" stroke-linecap="round" stroke-linejoin="round"/>
<path d="M725.956 6.04675H-11.4141" stroke="#D9DEF9" stroke-linecap="round" stroke-linejoin="round"/>
<path d="M725.956 10.4103H-11.4141" stroke="#D9DEF9" stroke-linecap="round" stroke-linejoin="round"/>
<path d="M725.956 51.5061H-11.4141" stroke="#D9DEF9" stroke-linecap="round" stroke-linejoin="round"/>
<path d="M725.956 33.9712H-11.4141" stroke="#D9DEF9" stroke-linecap="round" stroke-linejoin="round"/>
<path d="M725.956 2.11291H-11.4141" stroke="#D9DEF9" stroke-linecap="round" stroke-linejoin="round"/>
<path d="M725.956 62.6036H-11.4141" stroke="#D9DEF9" stroke-linecap="round" stroke-linejoin="round"/>
<path d="M725.956 75.8614H-11.4141" stroke="#D9DEF9" stroke-linecap="round" stroke-linejoin="round"/>
<path d="M725.956 91.9766H-11.4141" stroke="#D9DEF9" stroke-linecap="round" stroke-linejoin="round"/>
<path d="M725.956 111.983H-11.4141" stroke="#D9DEF9" stroke-linecap="round" stroke-linejoin="round"/>
<path d="M725.956 137.482H-11.4141" stroke="#D9DEF9" stroke-linecap="round" stroke-linejoin="round"/>
<path d="M593.221 84.3263L646.887 120.294" stroke="url(#paint0_linear_910_2745)" stroke-width="2" stroke-linecap="round"/>
<path d="M357.411 127.145L356.269 187.662" stroke="url(#paint1_linear_910_2745)" stroke-width="2" stroke-linecap="round"/>
<path d="M524.076 90.0323L494.968 60.9183" stroke="url(#paint2_linear_910_2745)" stroke-width="2" stroke-linecap="round"/>
<path d="M73.0059 118.224L128.9 76.3911" stroke="url(#paint3_linear_910_2745)" stroke-width="2" stroke-linecap="round"/>
<path d="M622.891 32.3724L657.146 47.2163" stroke="url(#paint4_linear_910_2745)" stroke-width="2" stroke-linecap="round"/>
<path d="M296.894 47.7872L283.763 72.9077" stroke="url(#paint5_linear_910_2745)" stroke-width="2" stroke-linecap="round"/>
<rect x="-10.6611" width="736.628" height="225.536" fill="url(#paint6_linear_910_2745)"/>
<defs>
<linearGradient id="paint0_linear_910_2745" x1="593.791" y1="84.8972" x2="593.791" y2="120.294" gradientUnits="userSpaceOnUse">
<stop stop-color="#40FFDD"/>
<stop offset="1" stop-color="#405BFF" stop-opacity="0"/>
</linearGradient>
<linearGradient id="paint1_linear_910_2745" x1="357.404" y1="128.106" x2="356.265" y2="187.662" gradientUnits="userSpaceOnUse">
<stop stop-color="#40FFDD"/>
<stop offset="1" stop-color="#405BFF" stop-opacity="0"/>
</linearGradient>
<linearGradient id="paint2_linear_910_2745" x1="531.141" y1="61.2883" x2="531.141" y2="84.2276" gradientUnits="userSpaceOnUse">
<stop stop-color="#40DDFF"/>
<stop offset="1" stop-color="#405BFF" stop-opacity="0"/>
</linearGradient>
<linearGradient id="paint3_linear_910_2745" x1="112.882" y1="76.517" x2="90.2899" y2="96.4042" gradientUnits="userSpaceOnUse">
<stop stop-color="#40DDFF"/>
<stop offset="1" stop-color="#405BFF" stop-opacity="0"/>
</linearGradient>
<linearGradient id="paint4_linear_910_2745" x1="626.138" y1="32.6324" x2="626.138" y2="48.7519" gradientUnits="userSpaceOnUse">
<stop stop-color="#40DDFF"/>
<stop offset="1" stop-color="#405BFF" stop-opacity="0"/>
</linearGradient>
<linearGradient id="paint5_linear_910_2745" x1="285.007" y1="48.2272" x2="285.007" y2="75.5064" gradientUnits="userSpaceOnUse">
<stop stop-color="#40DDFF"/>
<stop offset="1" stop-color="#405BFF" stop-opacity="0"/>
</linearGradient>
<linearGradient id="paint6_linear_910_2745" x1="357.653" y1="0" x2="357.653" y2="225.536" gradientUnits="userSpaceOnUse">
<stop stop-color="white"/>
<stop offset="1" stop-color="white" stop-opacity="0"/>
</linearGradient>
</defs>
</svg>
