<svg width="381" height="89" viewBox="0 0 381 89" fill="none" xmlns="http://www.w3.org/2000/svg">
<path d="M170.438 1.16162L89.8984 162.172" stroke="#D9DEF9" stroke-linecap="round" stroke-linejoin="round"/>
<path d="M107.971 1.16199L-11.4141 60.9065" stroke="#D9DEF9" stroke-linecap="round" stroke-linejoin="round"/>
<path d="M87.1503 1.16199L-11.4141 40.6259" stroke="#D9DEF9" stroke-linecap="round" stroke-linejoin="round"/>
<path d="M66.3316 1.16199L-11.4141 27.1034" stroke="#D9DEF9" stroke-linecap="round" stroke-linejoin="round"/>
<path d="M128.793 1.16199L-11.4141 94.7009" stroke="#D9DEF9" stroke-linecap="round" stroke-linejoin="round"/>
<path d="M45.5104 1.16199L-11.4141 17.443" stroke="#D9DEF9" stroke-linecap="round" stroke-linejoin="round"/>
<path d="M3.86813 1.16199L-11.4141 4.56208" stroke="#D9DEF9" stroke-linecap="round" stroke-linejoin="round"/>
<path d="M24.6893 1.16199L-11.4141 10.1971" stroke="#D9DEF9" stroke-linecap="round" stroke-linejoin="round"/>
<path d="M337.008 1.16162L394.003 17.4721" stroke="#D9DEF9" stroke-linecap="round" stroke-linejoin="round"/>
<path d="M191.266 1.16162L191.127 162.172" stroke="#D9DEF9" stroke-linecap="round" stroke-linejoin="round"/>
<path d="M357.844 1.16162L394.018 10.2181" stroke="#D9DEF9" stroke-linecap="round" stroke-linejoin="round"/>
<path d="M378.641 1.16162L393.996 4.57866" stroke="#D9DEF9" stroke-linecap="round" stroke-linejoin="round"/>
<path d="M316.195 1.16162L394.012 27.1425" stroke="#D9DEF9" stroke-linecap="round" stroke-linejoin="round"/>
<path d="M295.375 1.16162L394.013 40.6801" stroke="#D9DEF9" stroke-linecap="round" stroke-linejoin="round"/>
<path d="M253.727 1.16162L394.005 94.8562" stroke="#D9DEF9" stroke-linecap="round" stroke-linejoin="round"/>
<path d="M274.547 1.16162L394.004 60.994" stroke="#D9DEF9" stroke-linecap="round" stroke-linejoin="round"/>
<path d="M212.086 1.16162L292.348 162.172" stroke="#D9DEF9" stroke-linecap="round" stroke-linejoin="round"/>
<path d="M149.627 1.16162L-11.3125 162.172" stroke="#D9DEF9" stroke-linecap="round" stroke-linejoin="round"/>
<path d="M232.906 1.16162L393.571 162.172" stroke="#D9DEF9" stroke-linecap="round" stroke-linejoin="round"/>
<path d="M393.994 23.1351H-11.4141" stroke="#D9DEF9" stroke-linecap="round" stroke-linejoin="round"/>
<path d="M393.994 8.39946H-11.4141" stroke="#D9DEF9" stroke-linecap="round" stroke-linejoin="round"/>
<path d="M393.994 11.4039H-11.4141" stroke="#D9DEF9" stroke-linecap="round" stroke-linejoin="round"/>
<path d="M393.994 14.8018H-11.4141" stroke="#D9DEF9" stroke-linecap="round" stroke-linejoin="round"/>
<path d="M393.994 3.32451H-11.4141" stroke="#D9DEF9" stroke-linecap="round" stroke-linejoin="round"/>
<path d="M393.994 5.72356H-11.4141" stroke="#D9DEF9" stroke-linecap="round" stroke-linejoin="round"/>
<path d="M393.994 28.3182H-11.4141" stroke="#D9DEF9" stroke-linecap="round" stroke-linejoin="round"/>
<path d="M393.994 18.6774H-11.4141" stroke="#D9DEF9" stroke-linecap="round" stroke-linejoin="round"/>
<path d="M393.994 1.16167H-11.4141" stroke="#D9DEF9" stroke-linecap="round" stroke-linejoin="round"/>
<path d="M393.994 34.4196H-11.4141" stroke="#D9DEF9" stroke-linecap="round" stroke-linejoin="round"/>
<path d="M393.994 41.7088H-11.4141" stroke="#D9DEF9" stroke-linecap="round" stroke-linejoin="round"/>
<path d="M393.994 50.5689H-11.4141" stroke="#D9DEF9" stroke-linecap="round" stroke-linejoin="round"/>
<path d="M393.994 61.5683H-11.4141" stroke="#D9DEF9" stroke-linecap="round" stroke-linejoin="round"/>
<path d="M393.994 75.5881H-11.4141" stroke="#D9DEF9" stroke-linecap="round" stroke-linejoin="round"/>
<path d="M321.016 46.3628L350.522 66.1381" stroke="url(#paint0_linear_905_1261)" stroke-width="2" stroke-linecap="round"/>
<path d="M191.367 69.9047L190.739 103.177" stroke="url(#paint1_linear_905_1261)" stroke-width="2" stroke-linecap="round"/>
<path d="M283 49.5L266.996 33.493" stroke="url(#paint2_linear_905_1261)" stroke-width="2" stroke-linecap="round"/>
<path d="M35 65L65.7307 42" stroke="url(#paint3_linear_905_1261)" stroke-width="2" stroke-linecap="round"/>
<path d="M337.328 17.7985L356.162 25.9597" stroke="url(#paint4_linear_905_1261)" stroke-width="2" stroke-linecap="round"/>
<path d="M158.095 26.2736L150.875 40.0849" stroke="url(#paint5_linear_905_1261)" stroke-width="2" stroke-linecap="round"/>
<rect x="-11" width="405" height="124" fill="url(#paint6_linear_905_1261)"/>
<defs>
<linearGradient id="paint0_linear_905_1261" x1="321.329" y1="46.6767" x2="321.329" y2="66.1381" gradientUnits="userSpaceOnUse">
<stop stop-color="#40FFDD"/>
<stop offset="1" stop-color="#405BFF" stop-opacity="0"/>
</linearGradient>
<linearGradient id="paint1_linear_905_1261" x1="191.368" y1="70.433" x2="190.746" y2="103.177" gradientUnits="userSpaceOnUse">
<stop stop-color="#40FFDD"/>
<stop offset="1" stop-color="#405BFF" stop-opacity="0"/>
</linearGradient>
<linearGradient id="paint2_linear_905_1261" x1="286.884" y1="33.6965" x2="286.884" y2="46.3085" gradientUnits="userSpaceOnUse">
<stop stop-color="#40DDFF"/>
<stop offset="1" stop-color="#405BFF" stop-opacity="0"/>
</linearGradient>
<linearGradient id="paint3_linear_905_1261" x1="56.9241" y1="42.0692" x2="44.5028" y2="53.0032" gradientUnits="userSpaceOnUse">
<stop stop-color="#40DDFF"/>
<stop offset="1" stop-color="#405BFF" stop-opacity="0"/>
</linearGradient>
<linearGradient id="paint4_linear_905_1261" x1="339.113" y1="17.9414" x2="339.113" y2="26.8039" gradientUnits="userSpaceOnUse">
<stop stop-color="#40DDFF"/>
<stop offset="1" stop-color="#405BFF" stop-opacity="0"/>
</linearGradient>
<linearGradient id="paint5_linear_905_1261" x1="151.559" y1="26.5155" x2="151.559" y2="41.5136" gradientUnits="userSpaceOnUse">
<stop stop-color="#40DDFF"/>
<stop offset="1" stop-color="#405BFF" stop-opacity="0"/>
</linearGradient>
<linearGradient id="paint6_linear_905_1261" x1="191.5" y1="0" x2="191.5" y2="124" gradientUnits="userSpaceOnUse">
<stop stop-color="white"/>
<stop offset="1" stop-color="white" stop-opacity="0"/>
</linearGradient>
</defs>
</svg>
