<svg width="20" height="20" viewBox="0 0 20 20" fill="none" xmlns="http://www.w3.org/2000/svg">
<path fill-rule="evenodd" clip-rule="evenodd" d="M10.0194 10.0187C9.42665 10.0752 8.91875 9.93401 8.41066 9.68005C5.92707 8.43824 3.44364 7.19647 0.93183 5.92653C0.734181 5.84188 0.536732 5.72888 0.395562 5.58793C-0.0276873 5.22098 -0.0276873 4.79771 0.395562 4.45915C0.564272 4.31849 0.789083 4.20598 1.01408 4.09339L1.01409 4.09338L1.01645 4.0922C1.61604 3.79243 2.21736 3.49264 2.81954 3.19242C4.65493 2.27739 6.49841 1.35833 8.32594 0.423292C9.45472 -0.141097 10.5837 -0.141097 11.7125 0.423292L11.8138 0.4739C14.2071 1.67048 16.6008 2.86725 19.022 4.06383C19.0749 4.09551 19.1316 4.12325 19.1894 4.15147C19.286 4.19866 19.3853 4.2472 19.4736 4.31778C20.151 4.74103 20.1227 5.27728 19.4455 5.72888C19.3514 5.80412 19.2573 5.85432 19.1632 5.90453C19.1162 5.92958 19.0692 5.95465 19.0222 5.98283C16.567 7.19628 14.1115 8.43809 11.6563 9.67986C11.1484 9.93401 10.6121 10.1033 10.0194 10.0187ZM9.85258 14.9293C9.28819 14.9858 8.75192 14.8165 8.2157 14.5624C6.9366 13.9228 5.6646 13.2833 4.39254 12.6437L4.39247 12.6437C3.13866 12.0133 1.88479 11.3828 0.62399 10.7523C0.228893 10.5547 -0.0815598 10.3007 0.0312274 9.79283C0.0877268 9.42588 0.369831 9.20006 0.736777 9.14377C1.03216 9.09001 1.30207 9.24067 1.54631 9.377L1.58349 9.39772C2.0436 9.62778 2.50481 9.85783 2.96647 10.0881L2.96654 10.0881C4.82694 11.0161 6.69454 11.9477 8.5261 12.8973C9.54209 13.4052 10.4451 13.4336 11.4611 12.8973C12.892 12.1553 14.3339 11.4355 15.7731 10.717L15.7735 10.7168C16.6334 10.2875 17.4923 9.85875 18.3472 9.42605C18.5449 9.31324 18.7705 9.20024 18.9963 9.14375C19.3914 9.05909 19.7019 9.2284 19.8995 9.59534C20.0972 9.93395 19.9842 10.2727 19.7019 10.5267C19.5326 10.6678 19.3349 10.7806 19.1656 10.8653C18.5756 11.1638 17.9874 11.4624 17.4001 11.7604L17.4 11.7605C15.6556 12.6459 13.919 13.5273 12.1665 14.393C11.4612 14.76 10.6991 14.9576 9.85243 14.9293L9.85258 14.9293ZM8.10388 19.219C8.72457 19.5294 9.3455 19.7271 10.0229 19.6706L10.0228 19.6706C10.7284 19.7271 11.3776 19.5013 11.942 19.1907C13.1273 18.598 14.3196 18.0054 15.512 17.4127C16.7044 16.8201 17.8968 16.2274 19.0822 15.6347L19.0829 15.6344C19.2801 15.5499 19.4775 15.4653 19.6465 15.3243C20.0981 14.9576 20.0416 14.252 19.5337 13.9697C19.1786 13.7512 18.8764 13.9027 18.5504 14.0661C18.5396 14.0716 18.5287 14.077 18.5178 14.0825C16.147 15.2678 13.7764 16.4533 11.4058 17.6667C10.4463 18.1746 9.54311 18.1746 8.58362 17.6667C6.75201 16.7171 4.88437 15.7855 3.02392 14.8575C2.56228 14.6272 2.10109 14.3972 1.64101 14.1671C1.57504 14.1389 1.50909 14.1075 1.44315 14.0761C1.31152 14.0135 1.17993 13.9508 1.04825 13.9132C0.624816 13.772 0.342722 13.9697 0.116921 14.3083C-0.0805318 14.6469 -0.0242292 14.9857 0.258071 15.2396C0.392784 15.3518 0.562918 15.4462 0.726297 15.5368C0.768502 15.5602 0.810257 15.5834 0.850833 15.6066C2.0665 16.2144 3.27514 16.8152 4.48381 17.416C5.68815 18.0147 6.89251 18.6133 8.10388 19.219Z" fill="#405BFF"/>
</svg>
