<svg width="20" height="21" viewBox="0 0 20 21" fill="none" xmlns="http://www.w3.org/2000/svg">
<path d="M10 0C4.48403 0 0 4.48403 0 10C0 15.516 4.48403 20.0013 10 20.0013C15.516 20.0013 20 15.516 20 10C20 7.08622 18.748 4.46008 16.7544 2.63109H16.7532C14.9729 0.998361 12.6016 0.000125981 9.99986 0.000125981L10 0ZM10 1.17647C10.4085 1.17647 10.8164 1.35127 11.2454 1.75437C11.6745 2.15747 12.0971 2.78639 12.4575 3.58685C12.5396 3.76919 12.6179 3.96188 12.693 4.1613C11.8204 4.39781 10.9152 4.51976 10 4.51976C9.08321 4.51976 8.17658 4.39715 7.30242 4.16015C7.37759 3.96106 7.45604 3.76887 7.53794 3.58683C7.89837 2.78637 8.32445 2.15742 8.75349 1.75435C9.18252 1.35125 9.59151 1.17645 10 1.17645L10 1.17647ZM12.6551 1.58203C13.6515 1.89518 14.5706 2.38001 15.3791 3.00207C14.8782 3.30932 14.3541 3.57178 13.812 3.78808C13.7231 3.54993 13.6297 3.32132 13.5305 3.10102C13.2732 2.52938 12.9822 2.01892 12.6551 1.5822L12.6551 1.58203ZM7.33912 1.58433C7.01267 2.02076 6.72185 2.53021 6.46479 3.10088C6.36582 3.32082 6.27227 3.54912 6.18331 3.78676C5.64218 3.57094 5.11861 3.30979 4.61852 3.00323C5.42587 2.38185 6.34416 1.89769 7.33912 1.58433ZM16.2958 3.81319C17.7308 5.27345 18.6593 7.23298 18.8027 9.40941H14.8149C14.7709 7.7737 14.5462 6.24387 14.175 4.90941C14.9152 4.61989 15.6259 4.25357 16.2959 3.81336L16.2958 3.81319ZM3.70298 3.81434C4.37181 4.25354 5.08151 4.62022 5.82042 4.90926C5.44916 6.24396 5.22445 7.77363 5.1805 9.40968H1.19613C1.33958 7.23367 2.26853 5.27464 3.70303 3.81472L3.70298 3.81434ZM6.94059 5.28149C7.93126 5.55558 8.96034 5.69738 10.0001 5.69738C11.039 5.69738 12.0658 5.55623 13.055 5.28263C13.3839 6.48978 13.5935 7.89868 13.6375 9.40948H6.35807C6.40205 7.89818 6.61148 6.48898 6.94055 5.2815L6.94059 5.28149ZM1.19605 10.5861H5.18042C5.22408 12.223 5.44893 13.753 5.82034 15.0874C5.08063 15.3766 4.37008 15.7437 3.70063 16.1834C2.2663 14.7224 1.33815 12.7633 1.19605 10.5864V10.5861ZM6.35697 10.5861H13.6385C13.5948 12.0972 13.3847 13.5064 13.056 14.7141C12.0661 14.4405 11.0392 14.2993 9.99996 14.2993C8.95987 14.2993 7.93029 14.4398 6.93929 14.7141C6.61054 13.5064 6.40046 12.0974 6.35681 10.5861H6.35697ZM14.815 10.5861H18.8028C18.6606 12.7634 17.7328 14.7223 16.2982 16.1836C15.6276 15.7429 14.9161 15.3759 14.175 15.0864C14.5463 13.752 14.7713 12.2227 14.815 10.586V10.5861ZM9.99983 15.476C10.916 15.476 11.8216 15.5993 12.6951 15.8368C12.6195 16.0375 12.5399 16.2312 12.4573 16.4147C12.0969 17.2151 11.6742 17.8395 11.2452 18.2426C10.8162 18.6457 10.4083 18.8239 9.99978 18.8239C9.59125 18.8239 9.18226 18.6457 8.75323 18.2426C8.32419 17.8396 7.8981 17.2153 7.53768 16.4147C7.45529 16.2317 7.37651 16.0382 7.30101 15.8379C8.17563 15.5998 9.0826 15.476 9.99975 15.4762L9.99983 15.476ZM13.8107 16.2102C14.3533 16.4268 14.8787 16.6894 15.3801 16.9972C14.571 17.6198 13.6512 18.1062 12.6538 18.4195C12.9814 17.9811 13.2727 17.4684 13.5304 16.8961C13.6292 16.6765 13.7219 16.4472 13.8107 16.2102ZM6.18424 16.2113C6.27287 16.448 6.36593 16.6768 6.46458 16.8961C6.72193 17.4677 7.01294 17.9802 7.34004 18.4183C6.34462 18.105 5.42613 17.6191 4.61832 16.9972C5.11874 16.6901 5.64261 16.428 6.18424 16.2113Z" fill="#405BFF"/>
</svg>
