<svg width="18" height="18" viewBox="0 0 18 18" fill="none" xmlns="http://www.w3.org/2000/svg">
<path fill-rule="evenodd" clip-rule="evenodd" d="M0 4.17079C0 1.86734 1.86689 0 4.17272 0H13.3879C15.6925 0 17.5606 1.86676 17.5606 4.17079C17.5606 6.47411 15.6938 8.34126 13.3879 8.34126H4.17272C1.86814 8.34126 0 6.4745 0 4.17079ZM4.17079 6.80482C5.62562 6.80482 6.80482 5.62549 6.80482 4.17079C6.80482 2.71596 5.62558 1.53663 4.17079 1.53663C2.71596 1.53663 1.53663 2.71596 1.53663 4.17079C1.53663 5.62549 2.71596 6.80482 4.17079 6.80482ZM0 13.8292C0 11.5259 1.86689 9.65874 4.17272 9.65874H13.3879C15.6925 9.65874 17.5606 11.5255 17.5606 13.8292C17.5606 16.1327 15.6938 18 13.3879 18H4.17272C1.86814 18 0 16.1332 0 13.8292ZM13.3902 16.4634C14.845 16.4634 16.0243 15.284 16.0243 13.8292C16.0243 12.3745 14.845 11.1952 13.3902 11.1952C11.9354 11.1952 10.7561 12.3745 10.7561 13.8292C10.7561 15.284 11.9354 16.4634 13.3902 16.4634Z" fill="#405BFF"/>
</svg>
