<svg width="20" height="21" viewBox="0 0 20 21" fill="none" xmlns="http://www.w3.org/2000/svg">
<path d="M19.375 0L9.99929 2.5L0.625 0C0.279436 0 0 0.280693 0 0.625V13L10 15.5L20 13V0.625C20 0.280693 19.7206 0 19.375 0Z" fill="#405BFF"/>
<path d="M1.24253 16.3106C0.611388 16.1528 0 16.6302 0 17.2808V17.875C0 18.2218 0.279436 18.5 0.625 18.5L9.99929 21L19.375 18.5C19.7206 18.5 20 18.2218 20 17.875V17.2808C20 16.6302 19.3886 16.1528 18.7575 16.3106L10 18.5L1.24253 16.3106Z" fill="#405BFF"/>
</svg>
